<svg id="visual" viewBox="0 0 900 600" width="900" height="600" xmlns="http://www.w3.org/2000/svg" xmlns:xlink="http://www.w3.org/1999/xlink" version="1.1"><path d="M0 181L25 195C50 209 100 237 150 227C200 217 250 169 300 128C350 87 400 53 450 96C500 139 550 259 600 283C650 307 700 235 750 208C800 181 850 199 875 208L900 217L900 0L875 0C850 0 800 0 750 0C700 0 650 0 600 0C550 0 500 0 450 0C400 0 350 0 300 0C250 0 200 0 150 0C100 0 50 0 25 0L0 0Z" fill="#ffffff"></path><path d="M0 271L25 280C50 289 100 307 150 283C200 259 250 193 300 158C350 123 400 119 450 163C500 207 550 299 600 314C650 329 700 267 750 243C800 219 850 233 875 240L900 247L900 215L875 206C850 197 800 179 750 206C700 233 650 305 600 281C550 257 500 137 450 94C400 51 350 85 300 126C250 167 200 215 150 225C100 235 50 207 25 193L0 179Z" fill="#c1cbff"></path><path d="M0 361L25 365C50 369 100 377 150 339C200 301 250 217 300 184C350 151 400 169 450 219C500 269 550 351 600 366C650 381 700 329 750 312C800 295 850 313 875 322L900 331L900 245L875 238C850 231 800 217 750 241C700 265 650 327 600 312C550 297 500 205 450 161C400 117 350 121 300 156C250 191 200 257 150 281C100 305 50 287 25 278L0 269Z" fill="#739aff"></path><path d="M0 397L25 404C50 411 100 425 150 384C200 343 250 247 300 222C350 197 400 243 450 305C500 367 550 445 600 450C650 455 700 387 750 355C800 323 850 327 875 329L900 331L900 329L875 320C850 311 800 293 750 310C700 327 650 379 600 364C550 349 500 267 450 217C400 167 350 149 300 182C250 215 200 299 150 337C100 375 50 367 25 363L0 359Z" fill="#4487ff"></path><path d="M0 547L25 529C50 511 100 475 150 432C200 389 250 339 300 318C350 297 400 305 450 344C500 383 550 453 600 458C650 463 700 403 750 396C800 389 850 435 875 458L900 481L900 329L875 327C850 325 800 321 750 353C700 385 650 453 600 448C550 443 500 365 450 303C400 241 350 195 300 220C250 245 200 341 150 382C100 423 50 409 25 402L0 395Z" fill="#739aff"></path><path d="M0 595L25 583C50 571 100 547 150 519C200 491 250 459 300 425C350 391 400 355 450 383C500 411 550 503 600 514C650 525 700 455 750 453C800 451 850 517 875 550L900 583L900 479L875 456C850 433 800 387 750 394C700 401 650 461 600 456C550 451 500 381 450 342C400 303 350 295 300 316C250 337 200 387 150 430C100 473 50 509 25 527L0 545Z" fill="#c1cbff"></path><path d="M0 601L25 601C50 601 100 601 150 601C200 601 250 601 300 601C350 601 400 601 450 601C500 601 550 601 600 601C650 601 700 601 750 601C800 601 850 601 875 601L900 601L900 581L875 548C850 515 800 449 750 451C700 453 650 523 600 512C550 501 500 409 450 381C400 353 350 389 300 423C250 457 200 489 150 517C100 545 50 569 25 581L0 593Z" fill="#ffffff"></path></svg>