<svg id="visual" viewBox="0 0 960 540" width="960" height="540" xmlns="http://www.w3.org/2000/svg" xmlns:xlink="http://www.w3.org/1999/xlink" version="1.1"><rect x="0" y="0" width="960" height="540" fill="#ffffff"></rect><path d="M0 345L32 353.3C64 361.7 128 378.3 192 390C256 401.7 320 408.3 384 387.8C448 367.3 512 319.7 576 307.8C640 296 704 320 768 328.2C832 336.3 896 328.7 928 324.8L960 321L960 0L928 0C896 0 832 0 768 0C704 0 640 0 576 0C512 0 448 0 384 0C320 0 256 0 192 0C128 0 64 0 32 0L0 0Z" fill="#fa9179"></path><path d="M0 240L32 241.2C64 242.3 128 244.7 192 247.2C256 249.7 320 252.3 384 263.2C448 274 512 293 576 290.3C640 287.7 704 263.3 768 254.8C832 246.3 896 253.7 928 257.3L960 261L960 0L928 0C896 0 832 0 768 0C704 0 640 0 576 0C512 0 448 0 384 0C320 0 256 0 192 0C128 0 64 0 32 0L0 0Z" fill="#fd785f"></path><path d="M0 84L32 95.2C64 106.3 128 128.7 192 126.3C256 124 320 97 384 84C448 71 512 72 576 82C640 92 704 111 768 113.2C832 115.3 896 100.7 928 93.3L960 86L960 0L928 0C896 0 832 0 768 0C704 0 640 0 576 0C512 0 448 0 384 0C320 0 256 0 192 0C128 0 64 0 32 0L0 0Z" fill="#ff5b46"></path></svg>